<svg aria-hidden="true" style="position: absolute; width: 0; height: 0; overflow: hidden;" version="1.1" xmlns="http://www.w3.org/2000/svg" xmlns:xlink="http://www.w3.org/1999/xlink">
  <defs>
    <symbol id="burger" viewBox="0 0 39 32">
      <path stroke-linejoin="round" stroke-linecap="round" stroke-miterlimit="4" stroke-width="2.4615" d="M34.877 16.255h-29.538"></path>
      <path stroke-linejoin="round" stroke-linecap="round" stroke-miterlimit="4" stroke-width="2.4615" d="M34.877 9.855h-29.538"></path>
      <path stroke-linejoin="round" stroke-linecap="round" stroke-miterlimit="4" stroke-width="2.4615" d="M34.877 22.655h-29.538"></path>
    </symbol>

    <symbol id="close" viewBox="0 0 32 32">
      <path stroke-linejoin="round" stroke-linecap="round" stroke-miterlimit="4" stroke-width="2" d="M24 8l-16 16"></path>
      <path stroke-linejoin="round" stroke-linecap="round" stroke-miterlimit="4" stroke-width="2" d="M8 8l16 16"></path>
    </symbol>

    <symbol id="star" viewBox="0 0 32 32">
      <path d="m15.999 23.257-6.216 3.749a1.137 1.137 0 0 1-1.259-.041c-.177-.127-.308-.291-.394-.493s-.104-.429-.054-.684l1.641-7.083-5.482-4.783c-.199-.171-.321-.365-.365-.58s-.038-.425.017-.63c.05-.204.164-.377.344-.518s.396-.222.65-.245l7.249-.633 2.808-6.691c.1-.232.25-.404.452-.518s.405-.17.609-.17.407.057.609.17c.202.113.353.286.452.518l2.808 6.691 7.257.633c.249.022.463.104.642.245s.294.313.344.518c.055.204.061.414.017.63s-.165.409-.365.58l-5.482 4.783 1.641 7.083c.05.254.032.482-.054.684a1.148 1.148 0 0 1-.999.704 1.115 1.115 0 0 1-.654-.17l-6.216-3.749z"/>
    </symbol>

    <symbol id="location" viewBox="0 0 32 32">
      <path stroke-linejoin="round" stroke-linecap="round" stroke-miterlimit="4" stroke-width="2.6667" d="M28 13.333c0 9.333-12 17.333-12 17.333s-12-8-12-17.333c0-3.183 1.264-6.235 3.515-8.485s5.303-3.515 8.485-3.515c3.183 0 6.235 1.264 8.485 3.515s3.515 5.303 3.515 8.485z"></path>
      <path stroke-linejoin="round" stroke-linecap="round" stroke-miterlimit="4" stroke-width="2.6667" d="M16 17.333c2.209 0 4-1.791 4-4s-1.791-4-4-4c-2.209 0-4 1.791-4 4s1.791 4 4 4z"></path>
    </symbol>

    <symbol id="phone" viewBox="0 0 32 32">
      <path stroke-linejoin="round" stroke-linecap="round" stroke-miterlimit="4" stroke-width="2.6667" d="M29.33 22.56v4c0.002 0.371-0.075 0.739-0.223 1.079s-0.367 0.646-0.641 0.897c-0.274 0.251-0.597 0.442-0.948 0.561s-0.725 0.163-1.094 0.13c-4.103-0.446-8.044-1.848-11.507-4.093-3.222-2.047-5.953-4.779-8-8-2.253-3.478-3.656-7.439-4.093-11.56-0.033-0.369 0.010-0.74 0.129-1.091s0.308-0.673 0.558-0.947c0.25-0.273 0.553-0.492 0.892-0.641s0.705-0.227 1.075-0.227h4c0.647-0.006 1.274 0.223 1.765 0.645s0.811 1.008 0.902 1.649c0.169 1.28 0.482 2.537 0.933 3.747 0.179 0.477 0.218 0.996 0.112 1.495s-0.353 0.956-0.712 1.319l-1.693 1.693c1.898 3.338 4.662 6.102 8 8l1.693-1.693c0.363-0.359 0.82-0.605 1.319-0.712s1.017-0.067 1.494 0.112c1.21 0.451 2.467 0.764 3.747 0.933 0.648 0.091 1.239 0.418 1.662 0.917s0.647 1.136 0.631 1.79z"></path>
    </symbol>

    <symbol id="rectangle" viewBox="0 0 151 32">
      <path d="M0 15.238c0-8.416 6.822-15.238 15.238-15.238h135.619v32h-135.619c-8.416 0-15.238-6.822-15.238-15.238v-1.524z"></path>
    </symbol>

    <symbol id="lightning" viewBox="0 0 32 32">
      <path stroke-linejoin="round" stroke-linecap="round" stroke-miterlimit="4" stroke-width="2.4" d="M17.333 2.667l-11.875 14.25c-0.465 0.558-0.698 0.837-0.701 1.073-0.003 0.205 0.088 0.4 0.248 0.529 0.183 0.148 0.547 0.148 1.273 0.148h9.723l-1.333 10.667 11.875-14.251c0.465-0.558 0.698-0.837 0.701-1.073 0.003-0.205-0.088-0.4-0.248-0.529-0.183-0.148-0.547-0.148-1.273-0.148h-9.723l1.333-10.667z"></path>
    </symbol>
  </defs>
</svg>
